PathFileType   4   (X/Y/Z)
DataRate	CameraRate	NumFrames	NumMarkers	Units	OrigDataRate	OrigDataStartFrame	OrigNumFrames
120.0	120.0	4	37	mm	120.0	117	155
Frame#	Time	midhip	hip_r	hip_l	knee_r	knee_l	ankle_r	ankle_l	midasis	asis_r	asis_l	psis_r	psis_l	epicondLat_r	epicondLat_l	epicondMed_r	epicondMed_l	malleolusLat_r	malleolusLat_l	malleolusMedv_r	malleolusMedv_l	neck	subclavicle_r	subclavicle_l	sternalnotch	xyphoidprocess	thighwand_r	thighwand_l	upperleg1_r	upperleg1_l	upperleg2_r	upperleg2_l	shankwand_r	shankwand_l	lowerleg1_r	lowerleg1_l	toe_r	toe_l
 	 	X1	Y1	Z1	X2	Y2	Z2	X3	Y3	Z3	X4	Y4	Z4	X5	Y5	Z5	X6	Y6	Z6	X7	Y7	Z7	X8	Y8	Z8	X9	Y9	Z9	X10	Y10	Z10	X11	Y11	Z11	X12	Y12	Z12	X13	Y13	Z13	X14	Y14	Z14	X15	Y15	Z15	X16	Y16	Z16	X17	Y17	Z17	X18	Y18	Z18	X19	Y19	Z19	X20	Y20	Z20	X21	Y21	Z21	X22	Y22	Z22	X23	Y23	Z23	X24	Y24	Z24	X25	Y25	Z25	X26	Y26	Z26	X27	Y27	Z27	X28	Y28	Z28	X29	Y29	Z29	X30	Y30	Z30	X31	Y31	Z31	X32	Y32	Z32	X33	Y33	Z33	X34	Y34	Z34	X35	Y35	Z35	X36	Y36	Z36	X37	Y37	Z37

	117	1.20833	1366.192	842.831	-224.517	1370.794	825.976	-164.611	1363.872	824.523	-281.869	1495.652	468.797	-143.506	1375.158	467.504	-256.985	1256.067	169.067	-149.681	1293.267	68.565	-231.834	1424.707	907.080	-221.671	1422.194	906.924	-121.671	1427.220	907.236	-321.671	1265.122	930.053	-194.555	1266.146	932.099	-249.726	1502.145	474.278	-89.166	1390.328	464.342	-309.236	1501.281	459.605	-196.496	1357.248	455.049	-216.518	1245.764	176.554	-113.349	1299.053	64.988	-269.728	1282.580	171.341	-176.718	1311.288	80.451	-206.032	1301.170	1344.532	-204.541	1406.559	1275.117	-164.138	1399.864	1275.834	-270.596	1387.595	1285.863	-221.368	1448.023	1121.216	-225.363	1576.836	678.561	-151.655	1499.989	633.431	-237.567	1491.299	698.343	-105.106	1438.784	671.421	-308.646	1513.784	616.011	-103.589	1438.247	583.295	-298.424	1313.617	277.888	-43.600	1290.468	180.524	-345.279	1324.105	279.830	-84.598	1299.272	187.731	-303.924	1335.627	95.131	-106.744	1419.942	37.240	-237.848
	118	1.21667	1370.901	842.593	-224.601	1375.741	825.869	-164.496	1368.467	824.224	-281.730	1505.440	470.384	-144.289	1376.984	467.217	-256.727	1273.364	164.692	-149.847	1293.250	68.643	-231.684	1429.304	907.004	-221.841	1427.094	906.994	-121.810	1431.515	907.013	-321.872	1269.789	929.585	-194.142	1270.595	931.720	-249.205	1512.185	475.932	-89.987	1392.056	463.916	-308.997	1510.937	461.402	-197.404	1358.965	455.164	-216.087	1262.992	171.904	-113.478	1299.060	65.041	-269.573	1299.637	167.569	-177.016	1311.549	80.212	-205.840	1306.143	1344.346	-204.798	1411.475	1274.830	-164.525	1404.546	1275.424	-270.974	1392.412	1285.556	-221.762	1452.551	1120.783	-225.648	1583.820	681.265	-152.838	1503.140	632.233	-237.550	1498.274	699.918	-105.809	1442.051	670.786	-308.510	1521.843	617.923	-104.461	1440.816	582.734	-298.253	1328.497	274.850	-43.922	1291.061	180.506	-345.111	1338.785	277.102	-84.961	1299.830	187.703	-303.723	1354.978	92.991	-106.928	1419.723	37.197	-237.894
	119	1.22500	1375.636	842.392	-224.689	1380.673	825.737	-164.356	1373.035	823.905	-281.565	1514.936	471.896	-145.095	1378.874	466.918	-256.481	1290.815	160.142	-150.063	1293.217	68.725	-231.541	1433.897	906.891	-221.988	1432.000	907.025	-121.930	1435.794	906.758	-322.045	1274.458	929.110	-193.702	1275.039	931.343	-248.634	1521.929	477.503	-90.830	1393.841	463.488	-308.773	1520.085	463.123	-198.335	1361.799	454.860	-215.801	1280.370	167.071	-113.661	1299.064	65.095	-269.421	1316.882	163.552	-177.290	1312.122	79.901	-205.675	1311.161	1344.053	-205.138	1416.417	1274.492	-164.906	1409.153	1275.008	-271.365	1397.227	1285.219	-222.130	1457.073	1120.335	-226.046	1590.621	683.817	-153.992	1506.322	631.006	-237.542	1505.157	701.400	-106.466	1445.346	670.181	-308.373	1529.680	619.686	-105.316	1443.887	582.247	-298.109	1343.363	271.641	-44.286	1291.695	180.483	-344.958	1353.474	274.192	-85.344	1300.419	187.682	-303.532	1374.431	90.753	-107.171	1419.484	37.145	-237.963
	120	1.23333	1380.381	842.203	-224.728	1385.595	825.581	-164.196	1377.581	823.567	-281.377	1524.128	473.311	-145.916	1380.841	466.611	-256.251	1308.427	155.437	-150.328	1293.175	68.818	-231.404	1438.490	906.745	-222.117	1436.916	907.019	-122.041	1440.063	906.471	-322.193	1279.130	928.632	-193.236	1279.482	930.974	-248.009	1531.364	478.971	-91.688	1395.697	463.064	-308.567	1528.847	464.731	-199.240	1364.515	454.546	-215.701	1297.898	162.076	-113.895	1299.069	65.154	-269.273	1334.111	159.439	-177.625	1312.511	79.706	-205.512	1316.099	1343.748	-205.479	1421.347	1274.131	-165.325	1413.837	1274.584	-271.754	1402.046	1284.857	-222.463	1461.703	1119.891	-226.450	1597.226	686.195	-155.123	1509.532	629.754	-237.544	1511.875	702.752	-107.083	1448.659	669.542	-308.322	1537.276	621.320	-106.141	1446.927	581.746	-298.087	1358.207	268.276	-44.691	1292.376	180.456	-344.821	1368.222	271.115	-85.679	1301.078	187.691	-303.381	1393.983	88.433	-107.476	1419.246	37.092	-238.041
